<?xml version="1.0" encoding="utf-8"?>
<!-- Generator: Adobe Illustrator 27.1.1, SVG Export Plug-In . SVG Version: 6.00 Build 0)  -->
<svg version="1.1" id="Layer_1" xmlns="http://www.w3.org/2000/svg" xmlns:xlink="http://www.w3.org/1999/xlink" x="0px" y="0px"
	 viewBox="0 0 136.2 136.3" style="enable-background:new 0 0 136.2 136.3;" xml:space="preserve">
<style type="text/css">
	.st0{fill:#BB3658;}
	.st1{opacity:0.2;enable-background:new    ;}
	.st2{fill:#006983;}
	.st3{fill:#32C3E0;}
	.st4{fill:#006070;}
	.st5{fill:#ECA47E;}
	.st6{fill:#F9BE99;}
	.st7{fill:#71413E;}
	.st8{fill:#887DBA;}
	.st9{fill:#080404;}
	.st10{fill:#CB8C84;}
	.st11{fill:#DB9C94;}
</style>
<g>
	<path class="st0" d="M135.8,68.1c0,13.6-4,26.4-11,37c-0.6,0.9-1.2,1.8-1.9,2.7c-10.7,14.7-27.1,25-46,27.4
		c-2.9,0.4-5.8,0.6-8.8,0.6c-22.5,0-42.5-11-54.8-28c-0.6-0.9-1.3-1.8-1.9-2.7c-7-10.6-11-23.3-11-37c0-37.4,30.3-67.7,67.7-67.7
		c36.2,0,65.8,28.5,67.6,64.4C135.7,65.9,135.8,67,135.8,68.1z"/>
	<path class="st1" d="M135.8,68.1c0,13.6-4,26.4-11,37c-0.6,0.9-1.2,1.8-1.9,2.7c-10.7,14.7-27.1,25-46,27.4l-7.9-7.9V23.5h25.4
		l41.3,41.3C135.7,65.9,135.8,67,135.8,68.1z"/>
	<g>
		<g>
			<path class="st2" d="M11.4,105.1c0.6,0.9,1.2,1.8,1.9,2.7c12.3,17,32.3,28,54.8,28c22.6,0,42.5-11,54.8-28v0
				c0.6-0.9,1.3-1.8,1.9-2.7c-4.7-4.2-56.7-24.6-56.7-24.6S16.1,100.9,11.4,105.1z"/>
			<path class="st3" d="M86.9,87.7c-3.9-10.2-18.8-3.2-18.8-3.2s-14.9-7.1-18.8,3.2c-1.3,3.9-1.2,27.3,18.8,36.1
				C88.1,114.9,88.3,91.5,86.9,87.7z"/>
			<path class="st4" d="M97,106l-2.9-16.6c-1.9-0.6-5.5-1.9-7.5-2.3c3.6,13.2-15.3,33.4-18.5,36.7c-3.2-3.3-22.1-23.5-18.6-36.7
				c-1.9,0.4-5.5,1.7-7.4,2.3L39.2,106h7.3l-3.7,7.2l25.2,11l25.2-11l-3.7-7.2L97,106L97,106L97,106z"/>
			<path class="st3" d="M68.1,96.9l-12.6,11.6c0,0-11.7-16.2-3.7-25.6C51.8,82.9,52.2,93.6,68.1,96.9z M84.4,82.9
				c0,0-0.3,10.8-16.3,14l12.6,11.6C80.7,108.5,92.4,92.2,84.4,82.9z"/>
		</g>
		<g>
			<path class="st5" d="M84.4,84.7c0-12.4-1.6-12.1-16.3-12.1c-14.7,0-16.3-0.3-16.3,12.1c0,6.7,7.3,12.1,16.3,12.1
				C77.1,96.8,84.4,91.4,84.4,84.7z"/>
			<path class="st6" d="M96.2,47.1L96.2,47.1c0-0.4,0-0.8,0-1.3c0-18.9-9.4-27.6-28.3-27.6c-18.9,0-28.2,8.8-28.2,27.6
				c0,0.4,0,0.9,0,1.3c-2.8,0.4-4.6,4.3-4,8.6c0.7,4.3,3.5,7.5,6.4,7.1l0-0.1C46,76.3,54.6,87.9,68,87.9c13.4,0,22-11.8,25.9-25.3
				l0,0.2c2.8,0.4,5.7-2.7,6.3-7.1C100.9,51.4,99.1,47.5,96.2,47.1z"/>
			<path class="st7" d="M91.8,21.4c-3.1-7.4-21-17.4-41.1-6.2C30.7,26.4,37.4,48.4,37.4,48.4c2.9,0,3.6,2.7,3.6,2.7
				c0.1-0.3,5.8-15.8,17.5-17.3c10-1.3,17.7,4.9,27.7-0.9c1.2,7.3,10.1,8.6,9.8,16.9c1.3-1.5,2.7-1.4,2.7-1.4
				C105.2,23.5,91.8,21.4,91.8,21.4z"/>
		</g>
	</g>
</g>
<g>
	<path class="st0" d="M-910.4-279.3c0,1,0,1.9-0.1,2.9c-0.6,14.7-5.9,28.2-14.5,39c-10.6,13.5-26.2,22.8-44,25.2
		c-3,0.4-6,0.6-9.1,0.6c-21.5,0-40.8-10.1-53.1-25.8c-9.1-11.5-14.5-26.1-14.5-41.9c0-37.4,30.3-67.7,67.7-67.7
		C-940.7-347-910.4-316.7-910.4-279.3z"/>
	<path class="st1" d="M-910.5-276.4c-0.6,14.7-5.9,28.2-14.5,39c-10.6,13.5-26.2,22.8-44,25.2l-8.2-8.2v-103.9h18.8L-910.5-276.4z"
		/>
	<g>
		<path class="st8" d="M-1031.3-237.4c12.4,15.7,31.6,25.8,53.1,25.8c21.6,0,40.8-10.1,53.1-25.8c-5.5-4.3-53.1-23-53.1-23
			S-1025.8-241.7-1031.3-237.4z"/>
		<path class="st9" d="M-1012.2-264c0,0,3.2,6.3,8.2-1.9c0,0-1.5,5.4-5,8.2c0,0,2.9,2.2,5.2,0l0.6,1c0,0,7.5,1.9,13-0.7
			c-9.7-7.1-14.5-22.5-14.5-35.6c0-17.8,8.8-26,26.6-26c17.8,0,26.6,8.2,26.6,26c0,13.1-4.8,28.5-14.5,35.6c5.5,2.6,13,0.7,13,0.7
			l0.6-1c2.3,2.2,5.3,0,5.3,0c-3.5-2.8-5-8.2-5-8.2c5,8.2,8.2,1.9,8.2,1.9c-7.1-0.3-4.4-15.5-3.8-20.8c0.4-3.8,0-15.1,0-15.1
			c0-17.4-13.1-31.5-29.2-31.5h-2.3c-16.1,0-29.2,14.1-29.2,31.5c0,0-0.4,11.4,0,15.1C-1007.8-279.5-1004-265.9-1012.2-264z"/>
		<g>
			<path class="st10" d="M-993.5-256.4c0-11.6,1.5-11.4,15.4-11.4c13.8,0,15.3-0.3,15.3,11.4c0,0.7,3.5,28.4-15.3,36.8
				C-997-228-993.5-255.7-993.5-256.4z"/>
			<path class="st11" d="M-1004.6-293c0,2.3,0.1,4.6,0.4,7c1.1,9.3,4.6,18.9,10.3,25.2c1,1.1,2.1,2.2,3.3,3.1
				c3.5,2.7,7.7,4.4,12.6,4.4c4.5,0,8.4-1.4,11.7-3.7c8.3-5.8,13.1-17.6,14.5-29.1c0,0,0,0,0,0c0.3-2.3,0.4-4.6,0.4-6.8
				c0-15.2-6.5-23.5-19.5-25.5c-1-0.2-2-0.3-3-0.4c-0.5,0-1-0.1-1.5-0.1c-0.8,0-1.7-0.1-2.5-0.1C-995.8-319-1004.6-310.8-1004.6-293
				z"/>
		</g>
		<path class="st9" d="M-1006.1-284.9c0-0.5,0-1,0-1.5c0-0.7,0-1.3,0-2c4.1-4.2,10.7-12.2,12.8-22.8c0,0,1.9,14.5,11.9,16.2
			c0,0-7.8-5.1-6.6-10.5c0,0,8.4,9.8,15.3,10.5c0,0-10.3-5.7-10.3-11.2c0,0,22,16.5,33,21.1c0.3-2.5,0.4-4.9,0.4-7.3
			c0-16.3-6.9-25.2-20.9-27.4c-1.1-0.2-2.1-0.3-3.3-0.4c-0.5,0-1.1-0.1-1.6-0.1c-0.9,0-1.8-0.1-2.7-0.1c-19.1,0-28.5,8.8-28.5,27.9
			C-1006.6-289.9-1006.4-287.4-1006.1-284.9z"/>
	</g>
</g>
</svg>
